<?xml version="1.0" encoding="utf-8"?>
<!-- Generator: Adobe Illustrator 22.0.1, SVG Export Plug-In . SVG Version: 6.00 Build 0)  -->
<svg version="1.1" xmlns="http://www.w3.org/2000/svg" xmlns:xlink="http://www.w3.org/1999/xlink" x="0px" y="0px"
     viewBox="0 0 1388 500" style="enable-background:new 0 0 1388 500;" xml:space="preserve">
<style type="text/css">
    .st0{fill:url(#SVGID_1_);}
    .st1{filter:url(#Adobe_OpacityMaskFilter);}
    .st2{fill:url(#SVGID_3_);}
    .st3{opacity:0.86;mask:url(#SVGID_2_);fill:#28479E;}
    .st4{fill:#005EA4;}
    .st5{fill:#0481C4;}
    .st6{fill:#4A95C8;}
    .st7{fill:#183F49;}
    .st8{fill:#351A07;}
    .st9{fill:#330618;}
    .st10{fill:#2D4351;}
    .st11{fill:#72624C;}
    .st12{fill:#AA9975;}
    .st13{fill:#5C4D39;}
    .st14{fill:#F3E3CB;}
</style>
<g id="Sky">
    <linearGradient id="SVGID_1_" gradientUnits="userSpaceOnUse" x1="482.5282" y1="201.6354" x2="1103.9268" y2="343.7522">
        <stop  offset="0.1137" style="stop-color:#99C5F5"/>
        <stop  offset="0.3413" style="stop-color:#A8CEF6"/>
        <stop  offset="0.7781" style="stop-color:#D0E5FA"/>
        <stop  offset="1" style="stop-color:#E6F2FC"/>
    </linearGradient>
    <rect class="st0" width="1388" height="500"/>
    <defs>
        <filter id="Adobe_OpacityMaskFilter" filterUnits="userSpaceOnUse" x="0" y="-0.1" width="1388" height="500">
            <feColorMatrix  type="matrix" values="1 0 0 0 0  0 1 0 0 0  0 0 1 0 0  0 0 0 1 0"/>
        </filter>
    </defs>
    <mask maskUnits="userSpaceOnUse" x="0" y="-0.1" width="1388" height="500" id="SVGID_2_">
        <g class="st1">
            <linearGradient id="SVGID_3_" gradientUnits="userSpaceOnUse" x1="450.02" y1="717.1597" x2="762.1241" y2="119.4248">
                <stop  offset="1.942820e-02" style="stop-color:#FFFFFF"/>
                <stop  offset="0.6422" style="stop-color:#525252"/>
                <stop  offset="0.9544" style="stop-color:#000000"/>
            </linearGradient>
            <rect x="0" y="-0.1" class="st2" width="1388" height="500"/>
        </g>
    </mask>
    <rect x="0" y="-0.1" class="st3" width="1388" height="500"/>
</g>
<g id="Water">
    <polygon class="st4" points="1388,371.9 0,371.9 0,405.2 1388,408.4    "/>
    <polygon class="st5" points="1388,393.5 0,393.5 0,454.1 1388,459.9    "/>
    <polygon class="st6" points="1388,434.2 0,434.2 0,500 1388,500    "/>
</g>
<g id="Islands">
    <polygon class="st7" points="1027,371.9 1045,366.1 1068.5,365 1096.6,354.3 1164.1,354.3 1181.6,344.5 1251.4,344.5 1294.4,362.8
        1331,362.9 1368.6,373.4 1351.9,380.6 1047,377.8     "/>
    <polygon class="st7" points="906.7,397.3 897.5,391.8 860.7,391.8 851.7,397.3 864.7,399.7 894,399.7    "/>
    <polygon class="st7" points="425,371.9 401,362.5 314,362.5 283,344.5 119,344.5 81,322.3 0,322.3 0,417.1 14,410 110,410
        149,399.7 278,399.7 336,386 402,386     "/>
</g>
<g id="Boats">
    <g id="Boat5">

            <rect x="396" y="388.3" transform="matrix(1 -8.815952e-03 8.815952e-03 1 -3.4662 3.5106)" class="st8" width="0.9" height="13.3"/>
        <path class="st8" d="M412.5,397c0.2-1.3,1.2,1.8,2.1,3.3c0.8,1.4,1,3.3-0.3,4.6c-2.1,2.1-23.2,2.5-26.4,2.1
            c-1.7-0.3-6.1-0.7-7.5-4.7c-1.3-3.6,1.4-5,1.7-5.1c1.4-0.6-0.4-0.3,0.5,2.7c0.6,2.3,14.2,1.5,27.3-0.9
            C412.2,398.4,412.3,398.1,412.5,397z"/>
        <path class="st9" d="M384.5,389.3c5.8-1,18.2-1.2,22.2,0.4c1.6,2.9,2.6,6.6,1.3,10.2c-0.6-2.9-14.4-0.4-24-1.5
            C386.1,396.4,386.6,392.2,384.5,389.3z"/>
    </g>
    <g id="Boat4">

            <rect x="331.4" y="393.2" transform="matrix(0.9954 9.535366e-02 -9.535366e-02 0.9954 40.1189 -29.8349)" class="st8" width="1.6" height="23.2"/>
        <path class="st8" d="M359.8,411.4c0.7-2.1,1.8,3.4,3,6.1c1.2,2.6,1.1,5.8-1.4,7.9c-4,3.3-40.8,0.2-46.3-1.2
            c-2.9-0.7-10.4-2.3-12.2-9.6c-1.6-6.5,3.3-8.4,4-8.6c2.6-0.7-0.6-0.5,0.4,4.7c0.6,4.2,24.5,5.2,47.6,3.4
            C359,413.9,359.2,413.4,359.8,411.4z"/>
        <path class="st9" d="M311.6,394.6c10.2-1.6,31.9-1.3,38.9,1.6c2.6,5.2,4.2,11.6,1.9,17.8c-0.9-5.1-25.2-1.3-41.9-3.5
            C314.1,407,315.2,399.7,311.6,394.6z"/>
    </g>
    <g id="Boat3">

            <rect x="481.1" y="386.1" transform="matrix(0.9971 7.631986e-02 -7.631986e-02 0.9971 31.5109 -35.6118)" class="st8" width="1.2" height="16.7"/>
        <path class="st8" d="M501.5,398.8c0.4-1.6,1.3,2.4,2.2,4.3c0.9,1.8,0.9,4.2-0.9,5.7c-2.8,2.4-29.3,0.7-33.3-0.2
            c-2.1-0.5-7.5-1.5-8.9-6.7c-1.2-4.6,2.3-6,2.7-6.2c1.8-0.5-0.4-0.4,0.3,3.4c0.5,3,17.6,3.4,34.2,1.8
            C501,400.6,501.1,400.2,501.5,398.8z"/>
        <path class="st9" d="M466.5,388.2c7.2-1.7,22.8-2.6,27.9-0.9c2.1,3.6,3.6,8.1,2.3,12.7c-0.9-3.6-18.1,0.4-30.2-0.3
            C468.9,397,469.3,391.7,466.5,388.2z"/>
    </g>
    <g id="Boat2">

            <rect x="428.6" y="395.6" transform="matrix(0.9999 -1.476888e-02 1.476888e-02 0.9999 -6.0179 6.3911)" class="st8" width="2.1" height="30"/>
        <path class="st8" d="M466.8,418.3c0.8-2.8,2.4,4.4,4,7.8c1.6,3.3,1.6,7.5-1.6,10.2c-5,4.3-52.8,1.3-60-0.4
            c-3.8-0.9-13.5-2.7-16-12.1c-2.2-8.3,4.1-10.9,4.9-11.2c3.3-1-0.8-0.7,0.6,6.1c0.9,5.4,31.8,6.1,61.7,3.2
            C465.9,421.4,466.1,420.8,466.8,418.3z"/>
        <path class="st9" d="M402.3,398.8c13.1-2.7,41.1-3.9,50.3-0.6c3.7,6.6,6.2,14.8,3.7,22.9c-1.5-6.5-32.7,0-54.4-1.7
            C406.3,414.7,407.3,405.1,402.3,398.8z"/>
    </g>
    <g id="Boat1">

            <rect x="301.2" y="411.9" transform="matrix(0.9992 3.950740e-02 -3.950740e-02 0.9992 17.2828 -11.6154)" class="st8" width="2.8" height="39.1"/>
        <path class="st8" d="M350.3,444c1.2-3.6,2.8,5.9,4.7,10.5c1.8,4.4,1.5,9.9-2.8,13.2c-6.8,5.3-68.7-2.1-77.9-4.8
            c-4.9-1.4-17.4-4.5-20-16.8c-2.3-11,6-13.9,7.2-14.2c4.4-1.1-1-1,0.4,7.9c0.7,7,40.8,10.1,80,8.5C348.8,448,349.2,447.2,350.3,444
            z"/>
        <path class="st9" d="M266.9,416.2c17-3.6,53.5-5.3,65.5-1c4.9,8.5,8.2,19.2,4.9,29.8c-1.9-8.4-42.5,0.2-70.8-1.9
            C272.3,436.8,273.4,424.4,266.9,416.2z"/>
    </g>
</g>
<g id="Front">
    <path class="st10" d="M785,471c0,0-119.4-0.3-146.7,7.3c-28,7.8-57.2,8.8-66.3,7.5c-9-1.2-22-8.2-32-7.5c-10.1,0.7-36,1.7-44.7,7.7
        c-8.7,6-44,10.7-52.7,11s-16.7-8.5-27.3-7.8c-10.7,0.6-29.6,10.8-29.6,10.8h307.5L785,471z"/>
    <path class="st10" d="M799.5,467.9c0,0,48.4-15.9,58.9-25.4c3.7-3.4,4.5-10.5,9.6-16.5c6.1-7.1,13.5-13,23.5-16s14-6,25.5-6
        s13.5,8.5,22,11s9.5-1,17.5,0s12,7,18.5,11s14.4,0,20.5,0s26.6,8.5,26.6,8.5L799.5,467.9z"/>
    <polygon class="st11" points="1321.7,294.5 1361.5,306.5 1363.7,394.5 1319,394.5   "/>
    <path class="st12" d="M1359.2,361.7l1.3,31.6c0,0-13.4-0.1-13.4-0.4c0-0.3,1.5-32.8,1.5-32.8L1359.2,361.7z"/>
    <polygon class="st13" points="1388,350 1388,372.7 1356.8,373.4 1356.8,364.9 1351.5,363.6 1344,364.2 1347.5,356 1363.7,350     "/>
    <polygon class="st11" points="1388,372.7 1388,391.9 1347.5,391.9 1348.6,371.9     "/>
    <polygon class="st13" points="1325.1,362.8 1351.5,363.6 1352.2,392.8 1323.7,392.8     "/>
    <polygon class="st12" points="1212.8,110.7 1237,397.7 1289.2,400.3 1286.3,172.3 1269.2,169.7 1269.2,159 1254.7,150 1254.3,121
        1232.7,100.7    "/>
    <polygon class="st13" points="1212,103.2 1233,128.5 1246.5,134.5 1243.8,143.5 1237.2,152.2 1240.2,396.5 1206.8,392.8
        1205.2,112.8    "/>
    <polygon class="st14" points="1326.8,383.5 1388,384.7 1388,391.9 1323.7,392.8     "/>
    <polygon class="st14" points="1215.5,384.8 1240.5,384.8 1288.4,383.5 1286.4,391.7 1215.5,389.4    "/>
    <polygon class="st14" points="1388,465 1388,500 908,500 1145,426  "/>
    <polygon class="st12" points="1166,408.8 1166,436.8 913.5,500 661,500     "/>
    <polygon class="st14" points="1159,407 565.7,500 670.5,500 1159,413   "/>
    <polygon class="st11" points="1294.4,90 1297.3,396.5 1323.9,396.5 1312.3,90   "/>
    <polygon class="st13" points="1269.2,91.3 1280,101 1282.3,397.7 1309.1,397.7 1305,90.2    "/>
    <polygon class="st12" points="1315.3,90 1331,397.7 1323.9,396.5 1312.3,90 1315.3,90   "/>
    <polygon class="st11" points="1191.8,116 1209.1,118.6 1211.6,392.2 1182.9,392.2   "/>
    <polygon class="st13" points="1177,121 1172.8,392.2 1196,392.2 1199.7,113.3   "/>
    <polygon class="st12" points="1208.9,115.3 1216.5,390 1210.4,390 1205.2,115.8     "/>
    <polygon class="st13" points="1388,389.3 1160.3,387 1160.3,401.3 1150.3,401.3 1150.3,417.7 1138,417.7 1138,435 1130.3,435
        1130.3,445.1 1388,466   "/>
    <polygon class="st12" points="1239,0 1241.4,28.6 1256.9,23.7  "/>
    <polygon class="st12" points="1276.5,12.8 1269.2,59.5 1283.5,88.8 1325.5,93.3 1315.7,72.8 1310.8,72.1 1305.2,74.5 1297,54.5
        1289,47.2 1288.3,44.2 1282.2,20.3   "/>
    <polygon class="st13" points="1239,0 1183.2,17.5 1190.2,37.5 1164.5,43.2 1168,112.5 1177,121 1210.6,118.5 1216.5,110.8
        1275.2,96 1325.5,93.3 1310.8,72.1 1290.7,77.1 1290.5,48.5 1277,48.2 1276.5,12.8 1246.5,21.8     "/>
</g>
</svg>